{
	"asset":{
		"generator":"Khronos glTF Blender I/O v4.5.48",
		"version":"2.0"
	},
	"scene":0,
	"scenes":[
		{
			"name":"Scene",
			"nodes":[
				9
			]
		}
	],
	"nodes":[
		{
			"mesh":0,
			"name":"Object_2"
		},
		{
			"mesh":1,
			"name":"Object_3"
		},
		{
			"mesh":2,
			"name":"Object_4"
		},
		{
			"mesh":3,
			"name":"Object_5"
		},
		{
			"mesh":4,
			"name":"Object_6"
		},
		{
			"mesh":5,
			"name":"Object_7"
		},
		{
			"mesh":6,
			"name":"Object_8"
		},
		{
			"mesh":7,
			"name":"Object_9"
		},
		{
			"children":[
				0,
				1,
				2,
				3,
				4,
				5,
				6,
				7
			],
			"name":"Mario.obj.cleaner.materialmerger.gles"
		},
		{
			"children":[
				8
			],
			"name":"Sketchfab_model",
			"rotation":[
				-0.70710688829422,
				0,
				0,
				0.7071066498756409
			]
		}
	],
	"materials":[
		{
			"doubleSided":true,
			"name":"submesh_0",
			"pbrMetallicRoughness":{
				"baseColorTexture":{
					"index":0
				},
				"metallicFactor":0,
				"roughnessFactor":0.5
			}
		},
		{
			"doubleSided":true,
			"name":"submesh_1",
			"pbrMetallicRoughness":{
				"baseColorTexture":{
					"index":1
				},
				"metallicFactor":0,
				"roughnessFactor":0.5
			}
		},
		{
			"doubleSided":true,
			"name":"submesh_2",
			"pbrMetallicRoughness":{
				"baseColorTexture":{
					"index":2
				},
				"metallicFactor":0,
				"roughnessFactor":0.5
			}
		},
		{
			"doubleSided":true,
			"name":"submesh_3",
			"pbrMetallicRoughness":{
				"baseColorTexture":{
					"index":3
				},
				"metallicFactor":0,
				"roughnessFactor":0.5
			}
		},
		{
			"doubleSided":true,
			"name":"submesh_4",
			"pbrMetallicRoughness":{
				"baseColorTexture":{
					"index":4
				},
				"metallicFactor":0,
				"roughnessFactor":0.5
			}
		},
		{
			"doubleSided":true,
			"name":"submesh_5",
			"pbrMetallicRoughness":{
				"baseColorTexture":{
					"index":5
				},
				"metallicFactor":0,
				"roughnessFactor":0.5
			}
		},
		{
			"doubleSided":true,
			"name":"submesh_6",
			"pbrMetallicRoughness":{
				"baseColorTexture":{
					"index":6
				},
				"metallicFactor":0,
				"roughnessFactor":0.5
			}
		},
		{
			"doubleSided":true,
			"name":"submesh_7",
			"pbrMetallicRoughness":{
				"baseColorTexture":{
					"index":7
				},
				"metallicFactor":0,
				"roughnessFactor":0.5
			}
		}
	],
	"meshes":[
		{
			"name":"Object_0",
			"primitives":[
				{
					"attributes":{
						"POSITION":0,
						"NORMAL":1,
						"TEXCOORD_0":2
					},
					"indices":3,
					"material":0
				}
			]
		},
		{
			"name":"Object_1",
			"primitives":[
				{
					"attributes":{
						"POSITION":4,
						"NORMAL":5,
						"TEXCOORD_0":6
					},
					"indices":7,
					"material":1
				}
			]
		},
		{
			"name":"Object_2",
			"primitives":[
				{
					"attributes":{
						"POSITION":8,
						"NORMAL":9,
						"TEXCOORD_0":10
					},
					"indices":11,
					"material":2
				}
			]
		},
		{
			"name":"Object_3",
			"primitives":[
				{
					"attributes":{
						"POSITION":12,
						"NORMAL":13,
						"TEXCOORD_0":14
					},
					"indices":15,
					"material":3
				}
			]
		},
		{
			"name":"Object_4",
			"primitives":[
				{
					"attributes":{
						"POSITION":16,
						"NORMAL":17,
						"TEXCOORD_0":18
					},
					"indices":19,
					"material":4
				}
			]
		},
		{
			"name":"Object_5",
			"primitives":[
				{
					"attributes":{
						"POSITION":20,
						"NORMAL":21,
						"TEXCOORD_0":22
					},
					"indices":23,
					"material":5
				}
			]
		},
		{
			"name":"Object_6",
			"primitives":[
				{
					"attributes":{
						"POSITION":24,
						"NORMAL":25,
						"TEXCOORD_0":26
					},
					"indices":27,
					"material":6
				}
			]
		},
		{
			"name":"Object_7",
			"primitives":[
				{
					"attributes":{
						"POSITION":28,
						"NORMAL":29,
						"TEXCOORD_0":30
					},
					"indices":31,
					"material":7
				}
			]
		}
	],
	"textures":[
		{
			"sampler":0,
			"source":0
		},
		{
			"sampler":0,
			"source":1
		},
		{
			"sampler":0,
			"source":2
		},
		{
			"sampler":0,
			"source":3
		},
		{
			"sampler":0,
			"source":4
		},
		{
			"sampler":0,
			"source":5
		},
		{
			"sampler":0,
			"source":6
		},
		{
			"sampler":0,
			"source":7
		}
	],
	"images":[
		{
			"mimeType":"image/png",
			"name":"submesh_0_baseColor",
			"uri":"submesh_0_baseColor.png"
		},
		{
			"mimeType":"image/png",
			"name":"submesh_1_baseColor",
			"uri":"submesh_1_baseColor.png"
		},
		{
			"mimeType":"image/png",
			"name":"submesh_2_baseColor",
			"uri":"submesh_2_baseColor.png"
		},
		{
			"mimeType":"image/png",
			"name":"submesh_3_baseColor",
			"uri":"submesh_3_baseColor.png"
		},
		{
			"mimeType":"image/png",
			"name":"submesh_4_baseColor",
			"uri":"submesh_4_baseColor.png"
		},
		{
			"mimeType":"image/png",
			"name":"submesh_5_baseColor",
			"uri":"submesh_5_baseColor.png"
		},
		{
			"mimeType":"image/png",
			"name":"submesh_6_baseColor",
			"uri":"submesh_6_baseColor.png"
		},
		{
			"mimeType":"image/png",
			"name":"submesh_7_baseColor",
			"uri":"submesh_7_baseColor.png"
		}
	],
	"accessors":[
		{
			"bufferView":0,
			"componentType":5126,
			"count":1801,
			"max":[
				1.304658055305481,
				1.3772929906845093,
				7.133938789367676
			],
			"min":[
				-1.3046640157699585,
				-1.8155169486999512,
				5.089290142059326
			],
			"type":"VEC3"
		},
		{
			"bufferView":1,
			"componentType":5126,
			"count":1801,
			"type":"VEC3"
		},
		{
			"bufferView":2,
			"componentType":5126,
			"count":1801,
			"type":"VEC2"
		},
		{
			"bufferView":3,
			"componentType":5123,
			"count":9966,
			"type":"SCALAR"
		},
		{
			"bufferView":4,
			"componentType":5126,
			"count":3496,
			"max":[
				1.1239500045776367,
				1.080275058746338,
				6.65172004699707
			],
			"min":[
				-1.1239559650421143,
				-1.4659210443496704,
				4.176641941070557
			],
			"type":"VEC3"
		},
		{
			"bufferView":5,
			"componentType":5126,
			"count":3496,
			"type":"VEC3"
		},
		{
			"bufferView":6,
			"componentType":5126,
			"count":3496,
			"type":"VEC2"
		},
		{
			"bufferView":7,
			"componentType":5123,
			"count":19848,
			"type":"SCALAR"
		},
		{
			"bufferView":8,
			"componentType":5126,
			"count":3738,
			"max":[
				3.8504459857940674,
				0.6166549921035767,
				4.39661979675293
			],
			"min":[
				-3.850451946258545,
				-0.8523430228233337,
				3.436295986175537
			],
			"type":"VEC3"
		},
		{
			"bufferView":9,
			"componentType":5126,
			"count":3738,
			"type":"VEC3"
		},
		{
			"bufferView":10,
			"componentType":5126,
			"count":3738,
			"type":"VEC2"
		},
		{
			"bufferView":11,
			"componentType":5123,
			"count":19140,
			"type":"SCALAR"
		},
		{
			"bufferView":12,
			"componentType":5126,
			"count":3204,
			"max":[
				0.6801720261573792,
				-0.3235569894313812,
				5.886648178100586
			],
			"min":[
				-0.6801720261573792,
				-1.0760530233383179,
				4.770545959472656
			],
			"type":"VEC3"
		},
		{
			"bufferView":13,
			"componentType":5126,
			"count":3204,
			"type":"VEC3"
		},
		{
			"bufferView":14,
			"componentType":5126,
			"count":3204,
			"type":"VEC2"
		},
		{
			"bufferView":15,
			"componentType":5123,
			"count":18432,
			"type":"SCALAR"
		},
		{
			"bufferView":16,
			"componentType":5126,
			"count":2641,
			"max":[
				1.1255639791488647,
				0.6881939768791199,
				4.30217981338501
			],
			"min":[
				-1.1254500150680542,
				-1.1645519733428955,
				0.4016039967536926
			],
			"type":"VEC3"
		},
		{
			"bufferView":17,
			"componentType":5126,
			"count":2641,
			"type":"VEC3"
		},
		{
			"bufferView":18,
			"componentType":5126,
			"count":2641,
			"type":"VEC2"
		},
		{
			"bufferView":19,
			"componentType":5123,
			"count":13668,
			"type":"SCALAR"
		},
		{
			"bufferView":20,
			"componentType":5126,
			"count":1079,
			"max":[
				2.2276980876922607,
				0.5805230140686035,
				4.70088005065918
			],
			"min":[
				-2.2276980876922607,
				-1.1104329824447632,
				2.987159013748169
			],
			"type":"VEC3"
		},
		{
			"bufferView":21,
			"componentType":5126,
			"count":1079,
			"type":"VEC3"
		},
		{
			"bufferView":22,
			"componentType":5126,
			"count":1079,
			"type":"VEC2"
		},
		{
			"bufferView":23,
			"componentType":5123,
			"count":5772,
			"type":"SCALAR"
		},
		{
			"bufferView":24,
			"componentType":5126,
			"count":1157,
			"max":[
				1.1252100467681885,
				0.8102390170097351,
				6.513539791107178
			],
			"min":[
				-1.125216007232666,
				-1.2390539646148682,
				-0.00031800000579096377
			],
			"type":"VEC3"
		},
		{
			"bufferView":25,
			"componentType":5126,
			"count":1157,
			"type":"VEC3"
		},
		{
			"bufferView":26,
			"componentType":5126,
			"count":1157,
			"type":"VEC2"
		},
		{
			"bufferView":27,
			"componentType":5123,
			"count":6078,
			"type":"SCALAR"
		},
		{
			"bufferView":28,
			"componentType":5126,
			"count":2987,
			"max":[
				1.4201099872589111,
				0.3898490071296692,
				6.199379920959473
			],
			"min":[
				-1.4201099872589111,
				-1.914085030555725,
				4.042374134063721
			],
			"type":"VEC3"
		},
		{
			"bufferView":29,
			"componentType":5126,
			"count":2987,
			"type":"VEC3"
		},
		{
			"bufferView":30,
			"componentType":5126,
			"count":2987,
			"type":"VEC2"
		},
		{
			"bufferView":31,
			"componentType":5123,
			"count":16542,
			"type":"SCALAR"
		}
	],
	"bufferViews":[
		{
			"buffer":0,
			"byteLength":21612,
			"byteOffset":0,
			"target":34962
		},
		{
			"buffer":0,
			"byteLength":21612,
			"byteOffset":21612,
			"target":34962
		},
		{
			"buffer":0,
			"byteLength":14408,
			"byteOffset":43224,
			"target":34962
		},
		{
			"buffer":0,
			"byteLength":19932,
			"byteOffset":57632,
			"target":34963
		},
		{
			"buffer":0,
			"byteLength":41952,
			"byteOffset":77564,
			"target":34962
		},
		{
			"buffer":0,
			"byteLength":41952,
			"byteOffset":119516,
			"target":34962
		},
		{
			"buffer":0,
			"byteLength":27968,
			"byteOffset":161468,
			"target":34962
		},
		{
			"buffer":0,
			"byteLength":39696,
			"byteOffset":189436,
			"target":34963
		},
		{
			"buffer":0,
			"byteLength":44856,
			"byteOffset":229132,
			"target":34962
		},
		{
			"buffer":0,
			"byteLength":44856,
			"byteOffset":273988,
			"target":34962
		},
		{
			"buffer":0,
			"byteLength":29904,
			"byteOffset":318844,
			"target":34962
		},
		{
			"buffer":0,
			"byteLength":38280,
			"byteOffset":348748,
			"target":34963
		},
		{
			"buffer":0,
			"byteLength":38448,
			"byteOffset":387028,
			"target":34962
		},
		{
			"buffer":0,
			"byteLength":38448,
			"byteOffset":425476,
			"target":34962
		},
		{
			"buffer":0,
			"byteLength":25632,
			"byteOffset":463924,
			"target":34962
		},
		{
			"buffer":0,
			"byteLength":36864,
			"byteOffset":489556,
			"target":34963
		},
		{
			"buffer":0,
			"byteLength":31692,
			"byteOffset":526420,
			"target":34962
		},
		{
			"buffer":0,
			"byteLength":31692,
			"byteOffset":558112,
			"target":34962
		},
		{
			"buffer":0,
			"byteLength":21128,
			"byteOffset":589804,
			"target":34962
		},
		{
			"buffer":0,
			"byteLength":27336,
			"byteOffset":610932,
			"target":34963
		},
		{
			"buffer":0,
			"byteLength":12948,
			"byteOffset":638268,
			"target":34962
		},
		{
			"buffer":0,
			"byteLength":12948,
			"byteOffset":651216,
			"target":34962
		},
		{
			"buffer":0,
			"byteLength":8632,
			"byteOffset":664164,
			"target":34962
		},
		{
			"buffer":0,
			"byteLength":11544,
			"byteOffset":672796,
			"target":34963
		},
		{
			"buffer":0,
			"byteLength":13884,
			"byteOffset":684340,
			"target":34962
		},
		{
			"buffer":0,
			"byteLength":13884,
			"byteOffset":698224,
			"target":34962
		},
		{
			"buffer":0,
			"byteLength":9256,
			"byteOffset":712108,
			"target":34962
		},
		{
			"buffer":0,
			"byteLength":12156,
			"byteOffset":721364,
			"target":34963
		},
		{
			"buffer":0,
			"byteLength":35844,
			"byteOffset":733520,
			"target":34962
		},
		{
			"buffer":0,
			"byteLength":35844,
			"byteOffset":769364,
			"target":34962
		},
		{
			"buffer":0,
			"byteLength":23896,
			"byteOffset":805208,
			"target":34962
		},
		{
			"buffer":0,
			"byteLength":33084,
			"byteOffset":829104,
			"target":34963
		}
	],
	"samplers":[
		{
			"magFilter":9729,
			"minFilter":9987
		}
	],
	"buffers":[
		{
			"byteLength":862188,
			"uri":"Mario.bin"
		}
	]
}
